<svg width="27" height="28" viewBox="0 0 27 28" fill="none" xmlns="http://www.w3.org/2000/svg">
<path d="M25.2774 1.59595L25.9854 2.30395C26.961 3.28075 26.8134 5.01235 25.653 6.17155L11.0526 20.772L6.32223 22.5024C5.72823 22.7208 5.14983 22.4376 5.03223 21.8724C4.99262 21.6673 5.01133 21.4553 5.08623 21.2604L6.85023 16.4892L21.4098 1.92835C22.5702 0.769152 24.3018 0.619152 25.2774 1.59595ZM10.4154 3.04795C10.573 3.04795 10.7291 3.07899 10.8746 3.1393C11.0202 3.1996 11.1525 3.28799 11.264 3.39942C11.3754 3.51085 11.4638 3.64314 11.5241 3.78873C11.5844 3.93432 11.6154 4.09037 11.6154 4.24795C11.6154 4.40554 11.5844 4.56158 11.5241 4.70717C11.4638 4.85276 11.3754 4.98505 11.264 5.09648C11.1525 5.20791 11.0202 5.2963 10.8746 5.35661C10.7291 5.41691 10.573 5.44795 10.4154 5.44795H5.61543C4.97891 5.44795 4.36846 5.70081 3.91837 6.1509C3.46829 6.60098 3.21543 7.21143 3.21543 7.84795V22.248C3.21543 22.8845 3.46829 23.4949 3.91837 23.945C4.36846 24.3951 4.97891 24.648 5.61543 24.648H20.0154C20.6519 24.648 21.2624 24.3951 21.7125 23.945C22.1626 23.4949 22.4154 22.8845 22.4154 22.248V17.448C22.4154 17.1297 22.5419 16.8245 22.7669 16.5994C22.9919 16.3744 23.2972 16.248 23.6154 16.248C23.9337 16.248 24.2389 16.3744 24.464 16.5994C24.689 16.8245 24.8154 17.1297 24.8154 17.448V22.248C24.8154 23.521 24.3097 24.7419 23.4095 25.6421C22.5094 26.5422 21.2885 27.048 20.0154 27.048H5.61543C4.34239 27.048 3.12149 26.5422 2.22132 25.6421C1.32114 24.7419 0.81543 23.521 0.81543 22.248V7.84795C0.81543 6.57491 1.32114 5.35401 2.22132 4.45384C3.12149 3.55367 4.34239 3.04795 5.61543 3.04795H10.4154Z" fill="black"/>
</svg>
