<svg width="41" height="44" viewBox="0 0 41 44" fill="none" xmlns="http://www.w3.org/2000/svg">
<g clip-path="url(#clip0_198_17)">
<path d="M7.04622 22.0002C5.21853 22.0002 3.72314 20.5048 3.72314 18.6772V10.3695C3.72314 8.54177 5.21853 7.04639 7.04622 7.04639H20.3385C22.1662 7.04639 23.6616 8.54177 23.6616 10.3695V18.6772C23.6616 20.5048 22.1662 22.0002 20.3385 22.0002H17.0155V26.9848L12.0308 22.0002H7.04622ZM36.9539 31.9695C38.7816 31.9695 40.277 30.4741 40.277 28.6464V20.3387C40.277 18.511 38.7816 17.0156 36.9539 17.0156H26.9847V18.6772C26.9847 22.3325 23.9939 25.3233 20.3385 25.3233V28.6464C20.3385 30.4741 21.8339 31.9695 23.6616 31.9695H26.9847V36.9541L31.9693 31.9695H36.9539Z" fill="black"/>
</g>
<defs>
<clipPath id="clip0_198_17">
<rect width="39.8769" height="43.2" fill="white" transform="translate(0.399902 0.400146)"/>
</clipPath>
</defs>
</svg>
