<svg width="20" height="17" viewBox="0 0 20 17" fill="none" xmlns="http://www.w3.org/2000/svg">
<path d="M4.55023 16.2473C4.29288 16.2473 4.07732 16.1601 3.90353 15.9857C3.72975 15.8113 3.64255 15.5958 3.64194 15.339V14.4307H1.82537C1.32581 14.4307 0.898307 14.253 0.542863 13.8976C0.187419 13.5421 0.00939459 13.1143 0.00878906 12.6142V2.62297C0.00878906 2.12342 0.186814 1.69591 0.542863 1.34047C0.898912 0.985026 1.32641 0.807002 1.82537 0.806396H18.1746C18.6741 0.806396 19.1019 0.984421 19.458 1.34047C19.814 1.69652 19.9917 2.12402 19.9911 2.62297V12.6142C19.9911 13.1137 19.8134 13.5415 19.458 13.8976C19.1025 14.2536 18.6747 14.4313 18.1746 14.4307H16.358V15.339C16.358 15.5964 16.2708 15.8122 16.0964 15.9866C15.922 16.161 15.7064 16.2479 15.4497 16.2473H4.55023ZM1.82537 12.6142H18.1746V2.62297H1.82537V12.6142ZM3.64194 10.7976H16.358L12.2707 5.34784L9.09168 9.43514L6.82095 6.71027L3.64194 10.7976Z" fill="black"/>
</svg>
