<svg width="15" height="15" viewBox="0 0 15 15" fill="none" xmlns="http://www.w3.org/2000/svg">
<path d="M3.45118 11.5759H5.07081V7.52687H3.45118V11.5759ZM9.92971 11.5759H11.5493V3.47779H9.92971V11.5759ZM6.69044 11.5759H8.31007V9.1465H6.69044V11.5759ZM6.69044 7.52687H8.31007V5.90724H6.69044V7.52687ZM1.83155 14.8152C1.38615 14.8152 1.00499 14.6568 0.688086 14.3399C0.371178 14.0229 0.212454 13.6415 0.211914 13.1956V1.85816C0.211914 1.41276 0.370638 1.03161 0.688086 0.714697C1.00553 0.397789 1.38669 0.239065 1.83155 0.238525H13.169C13.6144 0.238525 13.9958 0.397249 14.3132 0.714697C14.6307 1.03215 14.7891 1.4133 14.7886 1.85816V13.1956C14.7886 13.641 14.6301 14.0224 14.3132 14.3399C13.9963 14.6573 13.6149 14.8158 13.169 14.8152H1.83155ZM1.83155 13.1956H13.169V1.85816H1.83155V13.1956Z" fill="black"/>
</svg>
