<svg width="24" height="25" viewBox="0 0 24 25" fill="none" xmlns="http://www.w3.org/2000/svg">
<path d="M21.25 12.5H8.895M4.534 12.5H2.75M4.534 12.5C4.534 11.9218 4.76368 11.3673 5.17251 10.9585C5.58134 10.5497 6.13583 10.32 6.714 10.32C7.29217 10.32 7.84666 10.5497 8.25549 10.9585C8.66432 11.3673 8.894 11.9218 8.894 12.5C8.894 13.0782 8.66432 13.6327 8.25549 14.0415C7.84666 14.4503 7.29217 14.68 6.714 14.68C6.13583 14.68 5.58134 14.4503 5.17251 14.0415C4.76368 13.6327 4.534 13.0782 4.534 12.5ZM21.25 19.107H15.502M15.502 19.107C15.502 19.6853 15.2718 20.2404 14.8628 20.6494C14.4539 21.0583 13.8993 21.288 13.321 21.288C12.7428 21.288 12.1883 21.0573 11.7795 20.6485C11.3707 20.2397 11.141 19.6852 11.141 19.107M15.502 19.107C15.502 18.5287 15.2718 17.9746 14.8628 17.5657C14.4539 17.1567 13.8993 16.927 13.321 16.927C12.7428 16.927 12.1883 17.1567 11.7795 17.5655C11.3707 17.9743 11.141 18.5288 11.141 19.107M11.141 19.107H2.75M21.25 5.89301H18.145M13.784 5.89301H2.75M13.784 5.89301C13.784 5.31484 14.0137 4.76035 14.4225 4.35152C14.8313 3.94269 15.3858 3.71301 15.964 3.71301C16.2503 3.71301 16.5338 3.7694 16.7983 3.87896C17.0627 3.98851 17.3031 4.14909 17.5055 4.35152C17.7079 4.55395 17.8685 4.79427 17.9781 5.05876C18.0876 5.32325 18.144 5.60673 18.144 5.89301C18.144 6.17929 18.0876 6.46277 17.9781 6.72726C17.8685 6.99175 17.7079 7.23207 17.5055 7.43451C17.3031 7.63694 17.0627 7.79751 16.7983 7.90707C16.5338 8.01663 16.2503 8.07301 15.964 8.07301C15.3858 8.07301 14.8313 7.84333 14.4225 7.43451C14.0137 7.02568 13.784 6.47118 13.784 5.89301Z" stroke="#767471" stroke-width="1.5" stroke-miterlimit="10" stroke-linecap="round"/>
</svg>
