<svg width="15" height="15" viewBox="0 0 15 15" fill="none" xmlns="http://www.w3.org/2000/svg">
<path d="M1.83155 14.8152C1.38615 14.8152 1.00499 14.6568 0.688086 14.3398C0.371178 14.0229 0.212454 13.6415 0.211914 13.1956V1.85816C0.211914 1.41276 0.370638 1.03161 0.688086 0.714697C1.00553 0.397789 1.38669 0.239065 1.83155 0.238525H10.7395L14.7886 4.2876V13.1956C14.7886 13.641 14.6301 14.0224 14.3132 14.3398C13.9963 14.6573 13.6149 14.8158 13.169 14.8152H1.83155ZM1.83155 13.1956H13.169V5.09742H9.9297V1.85816H1.83155V13.1956ZM3.45118 11.5759H11.5493V9.95632H3.45118V11.5759ZM3.45118 5.09742H7.50026V3.47779H3.45118V5.09742ZM3.45118 8.33668H11.5493V6.71705H3.45118V8.33668Z" fill="black"/>
</svg>
