<svg width="22" height="12" viewBox="0 0 22 12" fill="none" xmlns="http://www.w3.org/2000/svg">
<path d="M2 10H20C20.2833 10 20.521 10.096 20.713 10.288C20.905 10.48 21.0007 10.7174 21 11C20.9993 11.2827 20.9033 11.5204 20.712 11.713C20.5207 11.9057 20.2833 12.0014 20 12H2C1.71667 12 1.47934 11.904 1.288 11.712C1.09667 11.52 1.00067 11.2827 1 11C0.999338 10.7174 1.09534 10.48 1.288 10.288C1.48067 10.096 1.718 10 2 10ZM3 4.45002L2.525 5.30002C2.425 5.48336 2.275 5.60002 2.075 5.65002C1.875 5.70002 1.68334 5.67502 1.5 5.57502C1.31667 5.47502 1.2 5.32502 1.15 5.12502C1.1 4.92502 1.125 4.73336 1.225 4.55002L1.7 3.70002H0.750005C0.533338 3.70002 0.354338 3.62936 0.213005 3.48802C0.0716714 3.34669 0.000671318 3.16736 4.65116e-06 2.95002C-0.000662016 2.73269 0.070338 2.55369 0.213005 2.41302C0.355671 2.27236 0.534671 2.20136 0.750005 2.20002H1.7L1.225 1.40002C1.125 1.21669 1.1 1.02502 1.15 0.825024C1.2 0.625024 1.31667 0.475024 1.5 0.375024C1.68334 0.275024 1.875 0.250024 2.075 0.300024C2.275 0.350024 2.425 0.466691 2.525 0.650024L3 1.45002L3.475 0.650024C3.575 0.466691 3.725 0.350024 3.925 0.300024C4.125 0.250024 4.31667 0.275024 4.5 0.375024C4.68334 0.475024 4.8 0.625024 4.85 0.825024C4.9 1.02502 4.875 1.21669 4.775 1.40002L4.3 2.20002H5.25C5.46667 2.20002 5.646 2.27102 5.788 2.41302C5.93001 2.55502 6.00067 2.73402 6 2.95002C5.99934 3.16602 5.92834 3.34536 5.787 3.48802C5.64567 3.63069 5.46667 3.70136 5.25 3.70002H4.3L4.775 4.55002C4.875 4.73336 4.9 4.92502 4.85 5.12502C4.8 5.32502 4.68334 5.47502 4.5 5.57502C4.31667 5.67502 4.125 5.70002 3.925 5.65002C3.725 5.60002 3.575 5.48336 3.475 5.30002L3 4.45002ZM11 4.45002L10.525 5.30002C10.425 5.48336 10.275 5.60002 10.075 5.65002C9.875 5.70002 9.68334 5.67502 9.5 5.57502C9.31667 5.47502 9.2 5.32502 9.15 5.12502C9.1 4.92502 9.125 4.73336 9.22501 4.55002L9.7 3.70002H8.75C8.53334 3.70002 8.35434 3.62936 8.21301 3.48802C8.07167 3.34669 8.00067 3.16736 8 2.95002C7.99934 2.73269 8.07034 2.55369 8.21301 2.41302C8.35567 2.27236 8.53467 2.20136 8.75 2.20002H9.7L9.22501 1.40002C9.125 1.21669 9.1 1.02502 9.15 0.825024C9.2 0.625024 9.31667 0.475024 9.5 0.375024C9.68334 0.275024 9.875 0.250024 10.075 0.300024C10.275 0.350024 10.425 0.466691 10.525 0.650024L11 1.45002L11.475 0.650024C11.575 0.466691 11.725 0.350024 11.925 0.300024C12.125 0.250024 12.3167 0.275024 12.5 0.375024C12.6833 0.475024 12.8 0.625024 12.85 0.825024C12.9 1.02502 12.875 1.21669 12.775 1.40002L12.3 2.20002H13.25C13.4667 2.20002 13.6457 2.27102 13.787 2.41302C13.9283 2.55502 13.9993 2.73402 14 2.95002C14.0007 3.16602 13.9297 3.34536 13.787 3.48802C13.6443 3.63069 13.4653 3.70136 13.25 3.70002H12.3L12.775 4.55002C12.875 4.73336 12.9 4.92502 12.85 5.12502C12.8 5.32502 12.6833 5.47502 12.5 5.57502C12.3167 5.67502 12.125 5.70002 11.925 5.65002C11.725 5.60002 11.575 5.48336 11.475 5.30002L11 4.45002ZM19 4.45002L18.525 5.30002C18.425 5.48336 18.275 5.60002 18.075 5.65002C17.875 5.70002 17.6833 5.67502 17.5 5.57502C17.3167 5.47502 17.2 5.32502 17.15 5.12502C17.1 4.92502 17.125 4.73336 17.225 4.55002L17.7 3.70002H16.75C16.5333 3.70002 16.3543 3.62936 16.213 3.48802C16.0717 3.34669 16.0007 3.16736 16 2.95002C15.9993 2.73269 16.0703 2.55369 16.213 2.41302C16.3557 2.27236 16.5347 2.20136 16.75 2.20002H17.7L17.225 1.40002C17.125 1.21669 17.1 1.02502 17.15 0.825024C17.2 0.625024 17.3167 0.475024 17.5 0.375024C17.6833 0.275024 17.875 0.250024 18.075 0.300024C18.275 0.350024 18.425 0.466691 18.525 0.650024L19 1.45002L19.475 0.650024C19.575 0.466691 19.725 0.350024 19.925 0.300024C20.125 0.250024 20.3167 0.275024 20.5 0.375024C20.6833 0.475024 20.8 0.625024 20.85 0.825024C20.9 1.02502 20.875 1.21669 20.775 1.40002L20.3 2.20002H21.25C21.4667 2.20002 21.646 2.27102 21.788 2.41302C21.93 2.55502 22.0007 2.73402 22 2.95002C21.9993 3.16602 21.9283 3.34536 21.787 3.48802C21.6457 3.63069 21.4667 3.70136 21.25 3.70002H20.3L20.775 4.55002C20.875 4.73336 20.9 4.92502 20.85 5.12502C20.8 5.32502 20.6833 5.47502 20.5 5.57502C20.3167 5.67502 20.125 5.70002 19.925 5.65002C19.725 5.60002 19.575 5.48336 19.475 5.30002L19 4.45002Z" fill="#898989"/>
</svg>
